<svg xmlns="http://www.w3.org/2000/svg" xmlns:xlink="http://www.w3.org/1999/xlink" width="170" height="171.029" viewBox="0 0 170 171.029"><defs><radialGradient id="a" cx="0.5" cy="0.5" r="0.422" gradientTransform="matrix(0.97, 0.121, -0.148, 1.247, 0.089, -0.184)" gradientUnits="objectBoundingBox"><stop offset="0" stop-color="#fff"/><stop offset="1" stop-color="#d2d3d5"/></radialGradient></defs><g transform="translate(-0.01)"><path d="M14.728,0H150.574A14.728,14.728,0,0,1,165.3,14.728V146.854a14.728,14.728,0,0,1-14.728,14.728H14.728A14.728,14.728,0,0,1,0,146.854V14.728A14.728,14.728,0,0,1,14.728,0Z" transform="translate(4.708 9.447)" fill="url(#a)"/><path d="M361.033,606.235c0,13.67-.693,53.143.548,64.022-2.483,2.751-10.313,11.738-11.111,15.066l130.564-.014c-.731-3.249-8.728-12.487-11.281-15.081,1.476-3.955.732-48.234.732-58.611,0-9.708,1.69-13.557-8.079-13.557H367.315C361.593,598.06,361.033,600.867,361.033,606.235Zm4.336,58.441,100.554-.023.293-2.195-.049-57.528-97.059,0-3.759.012Z" transform="translate(-325.072 -554.736)" fill="#2d4d73" fill-rule="evenodd"/><path d="M555.889,752.618l100.554-.023.294-2.194-.05-57.528-97.058,0-3.759.012Z" transform="translate(-515.593 -642.678)" fill="#fefefe" fill-rule="evenodd"/><path d="M586.7,1618.081c2.838.964,93.6.937,96.331-.015-2.329-6.649-7.259-4.61-19.449-4.61-21.19,0-55.425-.927-73.745.106-1.344,1.7-2.508,2.769-3.137,4.519Z" transform="translate(-544.19 -1496.222)" fill="#fefefe" fill-rule="evenodd"/><path d="M359.128,1814.927l118.416,0c3.177,0,5.088-1.316,5.858-3.409-19.518-.9-57.927-.136-79.42-.131l-50.733.061c.787,2.125,2.685,3.476,5.878,3.478Z" transform="translate(-327.651 -1679.885)" fill="#010101" fill-rule="evenodd"/><path d="M1678.484,1290.856l1.281-2.454c.761.39.043-.041.488.333,1.176.992,1.886,2.537,3.332,2.715,1.174-1.376-.28-1.58-2.507-4.142a4.048,4.048,0,0,1,1.208-.719,2.479,2.479,0,0,0,1.225-.842,64.886,64.886,0,0,0-8.61-3.438,39.445,39.445,0,0,0,1.663,4.22,25.548,25.548,0,0,0,1.922,4.325Z" transform="translate(-1553.559 -1189.418)" fill="#010101" fill-rule="evenodd"/><path d="M1047.261,1721.6c3.082.691,26.474.674,29.638.007-.193-3.766-2.108-2.766-5.839-2.722h-17.976c-3.632-.042-5.709-1.02-5.823,2.715Z" transform="translate(-971.386 -1594.227)" fill="#fefefe" fill-rule="evenodd"/><circle cx="16.686" cy="16.686" r="16.686" transform="translate(119.393 117.234)" fill="#adc55e"/><text transform="translate(124.508 153.422)" fill="#fefefe" font-size="55" font-family="Raleway-Bold, Raleway" font-weight="700"><tspan x="0" y="0">+</tspan></text><rect width="17.535" height="13.632" transform="translate(47.922 72.241)" fill="#2d4d73"/><rect width="17.535" height="13.632" transform="translate(47.922 90.4)" fill="#2d4d73"/><rect width="17.535" height="13.632" transform="translate(70.247 72.241)" fill="#2d4d73"/><rect width="17.535" height="13.632" transform="translate(70.247 90.4)" fill="#2d4d73"/><rect width="17.535" height="13.632" transform="translate(92.763 90.4)" fill="#2d4d73"/><rect width="17.535" height="13.632" transform="translate(92.573 72.241)" fill="#2d4d73"/><rect width="17.535" height="13.632" transform="translate(114.899 72.241)" fill="#2d4d73"/><circle cx="16.654" cy="16.654" r="16.654" transform="translate(0.01 0)" fill="#0098da"/><rect width="17.535" height="13.632" transform="translate(47.922 53.791)" fill="#2d4d73"/><rect width="17.535" height="13.632" transform="translate(70.247 53.791)" fill="#2d4d73"/><rect width="17.535" height="13.632" transform="translate(92.573 53.791)" fill="#2d4d73"/><rect width="17.535" height="13.632" transform="translate(114.899 53.791)" fill="#2d4d73"/><path d="M10.45-217.631a9.878,9.878,0,0,1,.9-3.809,7.325,7.325,0,0,1,3.069-2.945l2.271-1.313a10.692,10.692,0,0,0,2.141-1.514,3.11,3.11,0,0,0,.97-2.247,3.137,3.137,0,0,0-.887-2.348,3.234,3.234,0,0,0-2.366-.869,3.091,3.091,0,0,0-3.028,1.656,5.928,5.928,0,0,0-.5,2.46H10.864a7.6,7.6,0,0,1,.816-3.607q1.384-2.46,4.885-2.46a5.3,5.3,0,0,1,4.252,1.573,5.263,5.263,0,0,1,1.342,3.5,4.759,4.759,0,0,1-1.431,3.477,14.011,14.011,0,0,1-2.969,2.034l-1.62.9a10.5,10.5,0,0,0-1.821,1.218,4.438,4.438,0,0,0-1.49,2.283h9.249v2.011Z" transform="translate(0.354 242.814)" fill="#fefefe"/></g></svg>