<svg xmlns="http://www.w3.org/2000/svg" xmlns:xlink="http://www.w3.org/1999/xlink" width="170" height="166.135" viewBox="0 0 170 166.135"><defs><radialGradient id="a" cx="0.5" cy="0.5" r="0.422" gradientTransform="matrix(0.97, 0.121, -0.148, 1.247, 0.089, -0.184)" gradientUnits="objectBoundingBox"><stop offset="0" stop-color="#fff"/><stop offset="1" stop-color="#d2d3d5"/></radialGradient></defs><path d="M14.306,0H146.267a14.306,14.306,0,0,1,14.306,14.306V142.653a14.306,14.306,0,0,1-14.306,14.306H14.306A14.306,14.306,0,0,1,0,142.653V14.306A14.306,14.306,0,0,1,14.306,0Z" transform="translate(9.427 9.176)" fill="url(#a)"/><circle cx="16.177" cy="16.177" r="16.177" transform="translate(0 0)" fill="#0098da"/><path d="M278.75,369.207H379.055V271.98H278.75Zm7.816-80.949,0,73.121h84.667V288.258l.006-.6H286.668Z" transform="translate(-238.815 -233.015)" fill="#323a5a" fill-rule="evenodd"/><path d="M535.614,578.907l43.959-.024-.034-6.352-43.939.039Z" transform="translate(-458.868 -490.508)" fill="#323a5a" fill-rule="evenodd"/><path d="M535.614,480.555l43.947-.033-.029-6.332-43.933.026Z" transform="translate(-458.868 -406.256)" fill="#323a5a" fill-rule="evenodd"/><path d="M535.64,677.742l43.956-.011-.064-6.3-43.791.013Z" transform="translate(-458.903 -575.239)" fill="#323a5a" fill-rule="evenodd"/><path d="M535.54,776.261l43.982-.024-.093-6.3-43.711.03Z" transform="translate(-458.817 -659.636)" fill="#323a5a" fill-rule="evenodd"/><path d="M415.207,579.055l9.461-.052-.024-6.255-9.454-.059Z" transform="translate(-355.709 -490.645)" fill="#323a5a" fill-rule="evenodd"/><path d="M415.31,480.654l9.447-.053-.013-1.85,0-2.64.007-1.765-9.44-.046Z" transform="translate(-355.811 -406.35)" fill="#323a5a" fill-rule="evenodd"/><path d="M415.19,677.8l9.464-.052-.033-6.236-9.3-.039Z" transform="translate(-355.709 -575.273)" fill="#323a5a" fill-rule="evenodd"/><path d="M415.11,776.392l9.49-.057-.056-6.229-9.246-.026Z" transform="translate(-355.64 -659.756)" fill="#323a5a" fill-rule="evenodd"/><path d="M16.091-112.222v-1.623a8.624,8.624,0,0,0,3.2-.747,3.681,3.681,0,0,0,1.353-2.476h1.67V-100.3H20.054v-11.926Z" transform="translate(-3.054 124.803)" fill="#fefefe"/><circle cx="2.835" cy="2.835" r="2.835" transform="translate(47.636 44.72)" fill="#fefefe"/><circle cx="2.835" cy="2.835" r="2.835" transform="translate(58.852 44.72)" fill="#fefefe"/><circle cx="2.835" cy="2.835" r="2.835" transform="translate(70.068 44.72)" fill="#fefefe"/></svg>