<svg xmlns="http://www.w3.org/2000/svg" xmlns:xlink="http://www.w3.org/1999/xlink" width="170" height="171.886" viewBox="0 0 170 171.886"><defs><radialGradient id="a" cx="0.5" cy="0.5" r="0.422" gradientTransform="matrix(0.97, 0.121, -0.148, 1.247, 0.089, -0.184)" gradientUnits="objectBoundingBox"><stop offset="0" stop-color="#fff"/><stop offset="1" stop-color="#d2d3d5"/></radialGradient></defs><g transform="translate(-0.02 0)"><path d="M14.8,0H151.33a14.8,14.8,0,0,1,14.8,14.8V147.59a14.8,14.8,0,0,1-14.8,14.8H14.8A14.8,14.8,0,0,1,0,147.59V14.8A14.8,14.8,0,0,1,14.8,0Z" transform="translate(3.889 9.494)" fill="url(#a)"/><g transform="translate(18.256 49.142)"><path d="M5807.093,8671.84v-15.754c5.287,0,8.094-.682,11.841,2.134,3.136,2.356,5.25,8.521,7.129,12.185.274.534.6.939.788,1.3.269.533.437.895-.446.895h-18.55C5807.27,8672.6,5807.093,8672.426,5807.093,8671.84Zm38.369,11.95V8697.5c0,3.218-3.256,6.1-6.606,6.1h-7.623a18.973,18.973,0,0,0-1.156-6.213,13.527,13.527,0,0,0-2.841-4.528c-3.843-3.985-6.774-4.759-12.266-4.759-3.358,0-7.9,2.489-9.912,5.079a18.167,18.167,0,0,0-1.574,2.238c-3.033,5.045-.992,7.822-2.74,8.187l-29.733,0c-.522-2.241-.281-4.039-1.19-6.179a16.9,16.9,0,0,0-2.807-4.562c-3.662-3.775-6.927-4.759-12.012-4.759-5.989,0-11.281,4.78-13,9.873-2.033,6.035,1.534,5.627-5.3,5.627a6.844,6.844,0,0,1-6.861-6.86c0-18.083-1.657-16.009,7.877-16.009,3.542,0,17.6.476,19.826-.5,5.05-2.219,4.557-10.8-.3-12.416-1.783-.593-16.437-.294-19.525-.294-2.842,0-7.877.852-7.877-2.033,0-3.434.034-3.568,4.319-3.558l31.775.013c7.631-.044,8.262-13.027-.51-13.235l-25.166.01c-12.032,0-10.418,1.367-10.418-7.369,0-4.432,3.963-6.861,8.385-6.861h63.017a6.118,6.118,0,0,1,4.014,1.832c2.188,2.322,1.831,6.5,1.831,9.857,0,3.123-.509,4.823.759,5.085,2.055.426,6.6-.707,10.906.783,9.329,3.227,8.739,16.332,15.005,19.553,4.808,2.472,9.377.9,11.035,6.5a26.944,26.944,0,0,1,.664,5.7Z" transform="translate(-5715.362 -8634.486)" fill="#2d4d73" fill-rule="evenodd"/><path d="M4498.949,11629.661a4.754,4.754,0,0,0,.542,2.507c.277.481,1.107,1.3,1.745,1.3h41.673c2.655,0,3.979-7.623-1.271-7.623h-39.132C4500.12,11625.85,4498.949,11627.277,4498.949,11629.661Z" transform="translate(-4491.58 -11608.824)" fill="#2d4d73" fill-rule="evenodd"/><path d="M8345.217,18639.713a4.836,4.836,0,1,1,9.656,0C8354.873,18645.881,8345.217,18645.682,8345.217,18639.713Zm-6.606-1.016c0,3.975.727,6.209,3.489,8.961a11.445,11.445,0,1,0,15.534-16.8,11.464,11.464,0,0,0-12.764-1.652,8.253,8.253,0,0,0-1.584.957l-1.348,1.193A11.091,11.091,0,0,0,8338.61,18638.7Z" transform="translate(-8309.389 -18571.104)" fill="#2d4d73" fill-rule="evenodd"/><path d="M18926.584,18640.191a4.51,4.51,0,0,1,1.412-3.67c.037-.037.092-.09.129-.125.053-.051.211-.193.268-.24,2.885-2.461,7.848-.361,7.848,3.02,0,1.764-.014,3.088-1.449,4.395C18931.863,18646.234,18926.584,18644.186,18926.584,18640.191Zm-6.607-.254a11.51,11.51,0,0,0,19.313,8.385c3.6-3.16,4.664-9.428,2.492-13.418a10.614,10.614,0,0,0-5.029-5.135A11.475,11.475,0,0,0,18919.977,18639.938Z" transform="translate(-18830.531 -18571.584)" fill="#2d4d73" fill-rule="evenodd"/><path d="M3204.15,14934.21c.109,1.631.694,3.143,3.3,3.143h36.591c3.377,0,3.6-4.835,2.4-6.464a2.818,2.818,0,0,0-2.144-1.159h-37.861a3.334,3.334,0,0,0-2.287,2.287Z" transform="translate(-3204.15 -14893.901)" fill="#2d4d73" fill-rule="evenodd"/></g><circle cx="16.738" cy="16.738" r="16.738" transform="translate(0.02 0)" fill="#0098da"/><path d="M110.641-3048.028a5.476,5.476,0,0,1-4.484-1.7,6.3,6.3,0,0,1-1.393-4.131h2.288a5.675,5.675,0,0,0,.633,2.458,3.328,3.328,0,0,0,3.079,1.375,4.037,4.037,0,0,0,2.774-.925,3.037,3.037,0,0,0,1.046-2.385,2.776,2.776,0,0,0-1.1-2.519,5.571,5.571,0,0,0-3.06-.718q-.219,0-.444.006t-.456.018v-1.935q.341.037.572.049t.5.012a4.574,4.574,0,0,0,2.02-.389,2.474,2.474,0,0,0,1.387-2.434,2.376,2.376,0,0,0-.925-2.008,3.451,3.451,0,0,0-2.154-.706,3.193,3.193,0,0,0-3.03,1.46,5.062,5.062,0,0,0-.523,2.288H105.2a6.573,6.573,0,0,1,.779-3.31q1.339-2.433,4.709-2.434a6.382,6.382,0,0,1,4.125,1.187,4.171,4.171,0,0,1,1.46,3.438,3.836,3.836,0,0,1-.864,2.6,3.626,3.626,0,0,1-1.387.973,3.782,3.782,0,0,1,2.148,1.454,4.4,4.4,0,0,1,.773,2.635,5.369,5.369,0,0,1-1.643,4.064A6.478,6.478,0,0,1,110.641-3048.028Z" transform="translate(-94.095 3073.727)" fill="#fefefe"/></g></svg>