<svg xmlns="http://www.w3.org/2000/svg" xmlns:xlink="http://www.w3.org/1999/xlink" width="170" height="172.766" viewBox="0 0 170 172.766"><defs><radialGradient id="a" cx="0.5" cy="0.5" r="0.422" gradientTransform="matrix(0.97, 0.121, -0.148, 1.247, 0.089, -0.184)" gradientUnits="objectBoundingBox"><stop offset="0" stop-color="#fff"/><stop offset="1" stop-color="#d2d3d5"/></radialGradient></defs><g transform="translate(-0.159)"><path d="M14.878,0H152.106a14.878,14.878,0,0,1,14.878,14.878V148.346a14.878,14.878,0,0,1-14.878,14.878H14.878A14.878,14.878,0,0,1,0,148.346V14.878A14.878,14.878,0,0,1,14.878,0Z" transform="translate(3.176 9.543)" fill="url(#a)"/><path d="M512.753,467.523c2.908,2.1,4.2-.48,10.552,4.488,9.41,7.354,15.463.076,25.651,1.751,3.87.636,9.613,3.217,12.095-.484,2.206-4.957-5.85-8.97-9.387-10.474-5.553-2.361-14.427-.991-11.144-8.33,7.421-2.01,17.531,7.752,21.528,10.879,2.1,1.646,4.189,3.86,7.232,2.355,1.057-4.438-6.424-15-9-18.723-2.1-3.045-16.5-9.417-19.053-9.525-2.023-.085-17.771,6.118-21.458,7.114-7.3,1.971-7.577-2.691-7.518,6.97.021,3.414-.7,11.463.5,13.977Z" transform="translate(-468.176 -401.924)" fill="#2d4d73" fill-rule="evenodd"/><path d="M836.168,1413.395c-3.452,2.2-11.847.382-14.734-1.844-5.051-3.894,2.732-2.469-10.228-8.875-2.373-1.173-10.388-6.1-12.945.146-2.262,5.52,4.788,8.611,7.773,10.685a161.635,161.635,0,0,0,24.353,13.439c10.854,4.7,20.142-2.65,28.051-6.724l-.012-24.066c-5.821,0-10.469-.646-15.674,1.436-7.979,3.19-6.293,4.877-12.709,4.8-2.383-.03-5.645-.459-7.4.985-2.89,2.38-.748,7.35,7.362,7.452C833.753,1410.873,836.093,1409.42,836.168,1413.395Z" transform="translate(-729.529 -1276.818)" fill="#2d4d73" fill-rule="evenodd"/><path d="M797.438,846.512c-3.693,3.464-1.356,5.325-1.826,6.89-1,1.3-8.855,6.3-10.89,7.108-2.117-1.816-3.163-2.82-6.729-1.509l-19.058-28.679-5.555.625L779.156,871l28.161-17.988c-.808-2.171-14.152-21.881-16.905-26.376-1.337-2.183-1.424-2.108-4.137-2.469-1.648,3.338-1.381,3.721.428,6.17C790.3,835.206,793.744,841.519,797.438,846.512Z" transform="translate(-688.884 -753.774)" fill="#2d4d73" fill-rule="evenodd"/><path d="M1560.59,1398.963V1370.17l-14.86.06-.05,28.715Z" transform="translate(-1413.51 -1253.137)" fill="#2d4d73" fill-rule="evenodd"/><path d="M1166.113,751.421c1.6,3.32,13.857,21.432,16.972,26.352,1.92,3.034,2.157,5.341-.672,7.2L1163.1,797.227a5.55,5.55,0,0,0-.82.776,19.765,19.765,0,0,0,2.333,3.37l27.93-17.863-11.919-18.839c-4.144-6.341-8.348-12.455-12.314-18.761-.566,3.089-1.136,3.556-2.2,5.51Z" transform="translate(-1062.859 -682.198)" fill="#2d4d73" fill-rule="evenodd"/><path d="M344.671,523.594c2.108.839,9.025.711,11.733.094l.21-25.667c-3.055-.455-9.115-.56-11.944.182v25.392Z" transform="translate(-315.084 -455.154)" fill="#2d4d73" fill-rule="evenodd"/><path d="M962.272,909.83c-9.986,2.281-6.492,17.255,3.844,14.584C974.5,922.247,972.266,907.547,962.272,909.83Z" transform="translate(-874.5 -831.897)" fill="#2d4d73" fill-rule="evenodd"/><circle cx="16.823" cy="16.823" r="16.823" transform="translate(0.159 0)" fill="#0098da"/><path d="M15.09-194.263V-202.2l-5.614,7.938Zm.037,6.2v-4.281H7.446V-194.5l8.023-11.13h1.859v11.362h2.581v1.92H17.329v4.281Z" transform="translate(3.305 213.655)" fill="#fefefe"/></g></svg>