<svg xmlns="http://www.w3.org/2000/svg" width="98.25" height="26.238" viewBox="0 0 98.25 26.238"><g transform="translate(-45.126 -12.491)"><path d="M61.639,23.743a2.652,2.652,0,0,0,.993,2.167,3.783,3.783,0,0,0,4.608-.023,2.64,2.64,0,0,0,.953-2.2,2.648,2.648,0,0,0-.992-2.177,3.821,3.821,0,0,0-4.608.023,2.637,2.637,0,0,0-.954,2.212M51.454,25.576l4.037,4.2,4.627-.024v.009h4.409c.159.007.32.01.483.008a7.3,7.3,0,0,0,4.712-1.642,5.409,5.409,0,0,0,1.947-4.478,6.182,6.182,0,0,0-.52-2.567,6.727,6.727,0,0,0-2-2.276,6.555,6.555,0,0,0-4.231-1.158A7.269,7.269,0,0,0,60.21,19.3a5.413,5.413,0,0,0-1.947,4.469,6,6,0,0,0,.722,2.95l-3.928-3.994Z" fill="#fefefe" fill-rule="evenodd"/><path d="M84.72,22.336l4.859-4.706,4.522.008-5.412,5.246,4.27,3.015.02,4.084L86.523,25.1l-1.811,1.655-.006,3.12-3.575.033.052-12.256,3.546.013Z" fill="#fefefe" fill-rule="evenodd"/><path d="M80.7,26.762l.027,3.044L78.281,29.8a6.382,6.382,0,0,1-4.527-1.7,5.592,5.592,0,0,1-1.86-4.183,5.535,5.535,0,0,1,2.1-4.384,7.781,7.781,0,0,1,5.056-1.859l1.719-.044-.02,3.147-1.834.016a3.754,3.754,0,0,0-2.447.9,2.7,2.7,0,0,0-1.05,2.171A2.8,2.8,0,0,0,76.3,25.9a2.957,2.957,0,0,0,2.156.854Z" fill="#fefefe" fill-rule="evenodd"/><path d="M93.677,24.008l.089,5.8c7.105-5.927,14.676-9.906,13.419-14.362-1.119-2.73-4.132-2.978-7.791-2.949,7.75,2.891,1.133,6.36-5.717,11.507" fill="#fefefe" fill-rule="evenodd"/><path d="M107.215,24.979l-6.521.031-6.239,4.806,12.756.009Z" fill="#fefefe" fill-rule="evenodd"/><path d="M45.268,24.1l.023,5.75c7.052-5.882,14.631-9.821,13.383-14.243-1.111-2.71-4.474-3.145-8.106-3.116,7.692,2.87,1.5,6.5-5.3,11.609" fill="#fefefe" fill-rule="evenodd"/><path d="M51.14,13.005c-.817-.44-3.756-.445-6-.459l-.015,4.864,7.777,0c1.586-1.575.79-3.231-1.763-4.4" fill="#fefefe" fill-rule="evenodd"/><path d="M120.412,23.841a2.639,2.639,0,0,0,1.065,2.2,4.248,4.248,0,0,0,4.949-.026,2.625,2.625,0,0,0,1.025-2.24,2.629,2.629,0,0,0-1.065-2.212,4.284,4.284,0,0,0-4.948.025,2.623,2.623,0,0,0-1.026,2.25m10.772-.1a5.383,5.383,0,0,1-2.092,4.554,8.723,8.723,0,0,1-10.133.1,5.375,5.375,0,0,1-2.173-4.525,5.389,5.389,0,0,1,2.093-4.545,8.1,8.1,0,0,1,5.062-1.681,7.326,7.326,0,0,1,4.544,1.176,6.96,6.96,0,0,1,2.143,2.312A6.006,6.006,0,0,1,131.184,23.745Z" fill="#fefefe"/><path d="M142.823,25.176a4.133,4.133,0,0,1-1.656,3.325,6.121,6.121,0,0,1-3.976,1.406,5.973,5.973,0,0,1-3.948-1.33,4.163,4.163,0,0,1-1.683-3.307l-.037-4.194,3.811-3.331.066,7.53a1.287,1.287,0,0,0,.554,1.032,2.015,2.015,0,0,0,1.294.418,1.986,1.986,0,0,0,1.244-.431,1.276,1.276,0,0,0,.535-1.047L139,22.375l-.023-2.633-.018-2.029,3.8-.034.014,1.628Z" fill="#fefefe"/><path d="M115.793,17.033l-4.055-4.468-6.182.006,7.39,8.714Z" fill="#fefefe" fill-rule="evenodd"/><path d="M125.21,12.571,113.909,29.8l-6.217.027,11.53-17.306Z" fill="#fefefe" fill-rule="evenodd"/><path d="M99.741,12.859c-.737-.359-2.9-.335-5.836-.305l.025,4.592,7.842.011c1.427-1.619.6-2.972-2.031-4.3" fill="#fefefe" fill-rule="evenodd"/><text transform="translate(45.375 36.728)" fill="#fefefe" font-size="5.628" font-family="Humanist777BT-BoldB, Humnst777 BT" font-weight="700"><tspan x="0" y="0">O Seu Shopping de Rock na Internet</tspan></text></g></svg>