<?xml version="1.0" encoding="UTF-8"?>
<!DOCTYPE svg PUBLIC "-//W3C//DTD SVG 1.1//EN" "http://www.w3.org/Graphics/SVG/1.1/DTD/svg11.dtd">
<!-- Creator: CorelDRAW 2019 (64 Bit) -->
<svg xmlns="http://www.w3.org/2000/svg" xml:space="preserve" width="60.9262mm" height="60.9261mm" version="1.1" style="shape-rendering:geometricPrecision; text-rendering:geometricPrecision; image-rendering:optimizeQuality; fill-rule:evenodd; clip-rule:evenodd"
viewBox="0 0 2958.79 2958.79"
 xmlns:xlink="http://www.w3.org/1999/xlink">
 <defs>
  <style type="text/css">
   <![CDATA[
    .fil1 {fill:#FEFEFE}
    .fil0 {fill:#255996}
   ]]>
  </style>
 </defs>
 <g id="Camada_x0020_1">
  <metadata id="CorelCorpID_0Corel-Layer"/>
  <g id="_1504727660784">
   <circle class="fil0" cx="1479.4" cy="1479.39" r="1479.4"/>
   <g>
    <path class="fil1" d="M620.9 1569.9c24.47,-65.42 49.48,-101.02 108.87,-127.55 56.87,-25.4 132.27,-31.83 198.92,-38.79 149.76,-15.64 263.23,-32.3 395.74,-80.21 130.84,-47.3 276.44,-137.53 372.16,-221.57l63.91 -56.04c20.11,-21.71 40.06,-37.36 59.84,-58.1l57.07 -60.89c-1.56,21.63 -18.38,45.89 -14.88,105.11 9.34,157.98 176.65,250.8 309.56,299.85 46.61,17.2 143.07,46.27 195.64,48.86 -10.44,-166.09 -90.56,-350.41 -191.75,-465.65 -47.98,-54.64 -53.32,-60.02 -110.06,-110.12 -171.74,-151.61 -427.51,-225.94 -665.46,-203.62 -126.24,11.84 -243.55,45.55 -342.25,96.13 -75.88,38.88 -134.25,81.5 -192.45,135.91 -22.78,21.3 -33.55,35.6 -53.07,57.01 -15.51,17 -32.37,40.06 -46.82,61.32 -83.05,122.18 -126.46,255.88 -142.61,405.75 -5.99,55.62 -11.38,158.78 -2.38,212.58z"/>
    <path class="fil1" d="M1361.78 2416.21c-84.2,-3.4 -213.73,-50.4 -289.19,-85.26 -56.41,-26.06 -125.11,-70.09 -173.14,-108.01l-51.38 -43c-17.09,-17.33 -31.09,-28.52 -46.85,-45.53 -15.18,-16.38 -29.6,-32.83 -44.51,-49.87 -86.32,-98.67 -155.74,-235.98 -191.16,-370.95 -57.22,-218.02 -31.92,-431.49 55.85,-633.27 18.88,-43.41 43.02,-83.77 66.19,-120.57 16.12,-25.6 78.64,-108.39 102.38,-131.6 9.39,-9.18 15.2,-15.12 23.64,-23.52 33.51,-33.36 61.31,-58.42 100.85,-87.87 355.56,-264.89 847.87,-252.04 1180.15,31.84 45.04,38.48 55.28,50.02 95.26,91.49 51.9,53.84 119.16,158.56 150.05,223.52 94.46,198.6 118.59,415.23 67.65,633.08 -5.75,24.57 -12.82,50.25 -20.91,73.58 -3.34,9.62 -23.64,63.85 -23.7,68.33 153.61,20.01 238.8,-82 273.87,-199.7 38.37,-128.74 16.44,-294.97 -53.41,-386.28 -64.09,-83.79 -85.18,-57.57 -93.51,-85.52 -4.81,-16.11 -9.24,-29.85 -15.14,-45.81 -21.85,-59.08 -46.33,-113.73 -75.35,-164.36 -29.83,-52.06 -104.39,-161.61 -153.62,-206.17l-45.01 -45.42c-191.33,-176.35 -441,-279.98 -709.82,-281.03 -460.47,-1.79 -868.59,293 -1008.29,731.45 -7.81,24.51 -3.61,13.47 -31.41,29.67 -155.35,90.56 -193.35,446.46 -36.52,604.06 21.63,21.74 42.39,36.85 73.74,46.19 13.91,4.14 10.39,9.46 22.46,38.45 6.21,14.91 12.29,28.41 18.48,42.47 33.17,75.34 87.91,160.36 138.23,221.58 153.02,186.16 353.51,312.96 593.78,365.52 15.76,3.45 94.64,14.38 101.12,18.89 12.33,8.56 15.45,16.53 36.88,22.31 17.3,4.67 36.48,2.87 51.82,-3.64 63.46,-26.92 65.21,-117.41 0.82,-145.5 -35.23,-15.37 -75.32,-1.86 -90.32,20.43z"/>
    <path class="fil1" d="M1790.3 1436.17c-87.6,13.17 -160.75,94.8 -146.49,199.9 11.95,88.06 91.81,167.04 195.49,151.13 86.89,-13.34 160.19,-95.42 146.05,-199.94 -11.97,-88.45 -91.26,-166.7 -195.06,-151.09z"/>
    <path class="fil1" d="M1119.96 1436.19c-87.63,13.17 -160.12,95.17 -146.31,199.2 11.66,87.84 91.3,167.58 195.28,151.86 87.27,-13.19 160.74,-95.89 146.36,-200.15 -12.17,-88.24 -91.53,-166.52 -195.33,-150.92z"/>
    <path class="fil1" d="M1489.01 2105.04c-46.13,0 -88.91,-4.77 -132.39,-14.88 -57.58,-13.37 -93.54,-37.01 -105.21,-39.73 -47.11,98.52 95.43,216.9 249.39,216.9 70.93,0 137.09,-24.99 177.88,-58.95 20.11,-16.74 38.37,-37.45 51.81,-66.13 11.49,-24.52 19,-73.48 0.33,-96.2 -9.57,3.85 -30.76,16.86 -50.19,24.72 -18.32,7.43 -36.75,13.22 -56.37,18.13 -43.15,10.8 -89.01,16.13 -135.25,16.13z"/>
   </g>
  </g>
 </g>
</svg>
