<?xml version="1.0" encoding="UTF-8"?>
<!DOCTYPE svg PUBLIC "-//W3C//DTD SVG 1.1//EN" "http://www.w3.org/Graphics/SVG/1.1/DTD/svg11.dtd">
<!-- Creator: CorelDRAW 2019 (64 Bit) -->
<svg xmlns="http://www.w3.org/2000/svg" xml:space="preserve" width="60.9262mm" height="60.9262mm" version="1.1" style="shape-rendering:geometricPrecision; text-rendering:geometricPrecision; image-rendering:optimizeQuality; fill-rule:evenodd; clip-rule:evenodd"
viewBox="0 0 1359.99 1359.99"
 xmlns:xlink="http://www.w3.org/1999/xlink">
 <defs>
  <style type="text/css">
   <![CDATA[
    .fil1 {fill:#FEFEFE}
    .fil0 {fill:#255996}
   ]]>
  </style>
 </defs>
 <g id="Camada_x0020_1">
  <metadata id="CorelCorpID_0Corel-Layer"/>
  <circle class="fil0" cx="680" cy="680" r="680"/>
  <g id="_1504989523184">
   <polygon class="fil1" points="904.27,1041.13 1068.59,1041.13 1068.26,385.12 904.42,385.12 "/>
   <polygon class="fil1" points="466.87,1040.32 476.29,1041.29 630.7,1041.13 630.98,494.38 466.87,494.48 "/>
   <polygon class="fil1" points="685.52,1041.13 840.51,1041.13 849.64,1040.52 849.62,549.94 840.21,548.96 685.48,549.13 "/>
   <polygon class="fil1" points="248.22,1041.13 413.52,1041.13 412.2,603.75 250.79,603.75 "/>
   <path class="fil1" d="M978.17 222.55c-25.47,8.88 -9.31,22.5 -31.64,38.31 -50.5,35.77 -109.45,83.82 -159.81,119.52 -14.75,10.46 -10.47,0.69 -27.64,5.59 -14.83,4.23 -4.79,8.59 -25.19,3.22l-139.53 -34.94c-15.61,-3.71 -14.66,-0.92 -23.59,-12.37 -12.09,-15.49 -33.51,-16.87 -43.83,-0.93 -12.63,19.5 11.18,6.29 -38.13,30.95l-141.8 70.11c-2.8,0.41 -35.48,-12.1 -43.08,16.77 -8.52,32.4 36.69,50.27 51.02,17.69 4.3,-9.77 -2.49,-6.1 19.32,-16.66 26.07,-12.62 151.26,-79.59 162.43,-78.31 17.15,1.96 8.5,5.67 26.63,-1.75 14.37,-5.88 39.01,4.79 55.56,8.93 37.35,9.34 75.42,18.21 112.96,27.99 18.79,4.89 6.75,4.37 17.95,15.31 11.04,10.78 36.32,10.14 43.36,-11.98 5.33,-16.75 -0.28,-10.46 14.63,-21.15l161.38 -120.59c14.59,-8.42 38.41,5.46 43.83,-25 3.59,-20.2 -15.7,-37.36 -34.83,-30.68z"/>
  </g>
 </g>
</svg>
