<svg xmlns="http://www.w3.org/2000/svg" xmlns:xlink="http://www.w3.org/1999/xlink" width="40" height="40" viewBox="0 0 40 40"><defs><linearGradient id="a" x1="0.146" y1="0.147" x2="0.854" y2="0.859" gradientUnits="objectBoundingBox"><stop offset="0" stop-color="#4676ed"/><stop offset="0.185" stop-color="#436de4"/><stop offset="0.487" stop-color="#3b54cd"/><stop offset="0.865" stop-color="#2f2da8"/><stop offset="1" stop-color="#2b1e99"/></linearGradient></defs><g transform="translate(-34.717 -59.583)"><path d="M74.717,79.582A20,20,0,1,0,51.592,99.34V85.364H46.515V79.582h5.077V75.176c0-5.012,2.986-7.782,7.555-7.782a30.73,30.73,0,0,1,4.477.391v4.922H61.1c-2.484,0-3.26,1.542-3.26,3.124v3.751h5.547L62.5,85.364h-4.66V99.34A20.005,20.005,0,0,0,74.717,79.582Z" transform="translate(0 0)" fill="url(#a)"/><path d="M59.329,83.263l.886-5.782H54.669V73.731c0-1.583.776-3.124,3.26-3.124h2.522V65.685a30.73,30.73,0,0,0-4.477-.391c-4.569,0-7.555,2.77-7.555,7.782v4.406H43.342v5.782h5.077V97.239a20.175,20.175,0,0,0,6.25,0V83.263Z" transform="translate(3.173 2.101)" fill="#fff"/></g></svg>