<svg xmlns="http://www.w3.org/2000/svg" xmlns:xlink="http://www.w3.org/1999/xlink" width="40" height="40" viewBox="0 0 40 40"><defs><linearGradient id="a" x1="0.854" y1="0.146" x2="0.146" y2="0.854" gradientUnits="objectBoundingBox"><stop offset="0.001" stop-color="#fbe18a"/><stop offset="0.209" stop-color="#fcbb45"/><stop offset="0.376" stop-color="#f75274"/><stop offset="0.524" stop-color="#d53692"/><stop offset="0.739" stop-color="#8f39ce"/><stop offset="1" stop-color="#5b4fe9"/></linearGradient></defs><g transform="translate(-77.187 -59.603)"><circle cx="20" cy="20" r="20" transform="translate(77.187 59.603)" fill="url(#a)"/><g transform="translate(85.461 67.85)"><path d="M96.717,68.693a1.375,1.375,0,1,0,1.375,1.375A1.375,1.375,0,0,0,96.717,68.693Z" transform="translate(-78.783 -64.506)" fill="#fff"/><path d="M93.431,69.982a5.775,5.775,0,1,0,5.775,5.775A5.782,5.782,0,0,0,93.431,69.982Zm0,9.474a3.7,3.7,0,1,1,3.7-3.7A3.7,3.7,0,0,1,93.431,79.456Z" transform="translate(-81.61 -64.032)" fill="#fff"/><path d="M99.642,89.081H90.28a7.051,7.051,0,0,1-7.044-7.043V72.675a7.052,7.052,0,0,1,7.044-7.043h9.362a7.053,7.053,0,0,1,7.044,7.043v9.363A7.052,7.052,0,0,1,99.642,89.081ZM90.28,67.838a4.842,4.842,0,0,0-4.838,4.837v9.363a4.843,4.843,0,0,0,4.838,4.838h9.362a4.844,4.844,0,0,0,4.838-4.838V72.675a4.843,4.843,0,0,0-4.838-4.837Z" transform="translate(-83.236 -65.632)" fill="#fff"/></g></g></svg>