<?xml version="1.0" encoding="UTF-8"?>
<!DOCTYPE svg PUBLIC "-//W3C//DTD SVG 1.1//EN" "http://www.w3.org/Graphics/SVG/1.1/DTD/svg11.dtd">
<!-- Creator: CorelDRAW 2019 (64 Bit) -->
<svg xmlns="http://www.w3.org/2000/svg" xml:space="preserve" width="60.9262mm" height="60.9262mm" version="1.1" style="shape-rendering:geometricPrecision; text-rendering:geometricPrecision; image-rendering:optimizeQuality; fill-rule:evenodd; clip-rule:evenodd"
viewBox="0 0 882.9 882.9"
 xmlns:xlink="http://www.w3.org/1999/xlink">
 <defs>
  <style type="text/css">
   <![CDATA[
    .fil1 {fill:#FEFEFE}
    .fil0 {fill:#255996}
   ]]>
  </style>
 </defs>
 <g id="Camada_x0020_1">
  <metadata id="CorelCorpID_0Corel-Layer"/>
  <g id="_1504727652624">
   <circle class="fil0" cx="441.45" cy="441.45" r="441.45"/>
   <g>
    <path class="fil1" d="M500.5 661l0 -166.8 93.37 1.66 0 165.1c66.15,0 55.2,6.33 55.2,-86.91 0,-44.94 -2.22,-95.8 0.27,-140.02 10.55,5.94 28.19,6.51 31.23,-8.19 2.45,-11.83 -28.62,-83.67 -31.03,-98.25 -1.48,-8.95 1.17,-17.46 -2.26,-26.17 -5.4,-13.72 -25.04,-10.3 -42.55,-10.29l-314.95 0c-51.26,-0.01 -45.77,1.01 -47.89,33.11 -1.23,18.67 -32.72,87.55 -31.48,99.3 1.76,16.62 23.55,19.35 30.62,10.4 3.46,17.63 0.99,145.51 0.97,181.38 -0.03,60.33 -3.91,45.64 136.84,45.64 40.53,0 81.14,-0.23 121.67,0.03zm-188.16 -314.86l-45.18 0.01c-5.11,18.15 -9.86,37.07 -15.24,55.33 -5.9,20.04 -8.46,41.14 16.53,44.15 28.75,3.47 29.3,-25 32.05,-38.86 3.92,-19.75 8.87,-40.26 11.83,-60.63zm76.39 0l-43.75 0.22c-6.98,45.43 -26.35,98.06 10.21,101.59 24.39,2.36 27.45,-17.18 29.12,-38.22 1.57,-19.77 4.24,-43.65 4.41,-63.6zm234.05 0l-43.63 0.13c2.18,18.59 7.75,40.51 11.58,59.44 4.3,21.24 4.51,44.81 31.13,42.24 9.68,-0.93 17.5,-7.15 20.65,-14.37 6.15,-14.12 -13.61,-65.77 -19.73,-87.45zm-76.58 -0.03l-43.34 0.1c0.05,13.47 2.93,81.4 10.03,91.56 9.99,14.3 34.35,14.25 43.56,-3.22 6.73,-12.77 -7.35,-73.27 -10.25,-88.44zm-76.78 0.52l-47.02 -0.49c-1.52,19.98 -1.55,40.49 -2.03,60.68 -0.49,20.91 1.58,40.34 23.7,41.27 22.2,0.93 27.88,-14.91 27.22,-36.92 -0.64,-21.35 -0.88,-43.29 -1.88,-64.53zm-23.49 256.75l0.18 -107.09 -146.91 -1.22 -0.09 109.32 146.81 -1.01z"/>
    <path class="fil1" d="M241.99 239.56c0,19.9 -1.04,32.65 23.89,32.65l360.56 0c23.89,0 22.62,-13.78 22.62,-32.65 0,-18.12 -6.95,-22.48 -24.79,-22.48l-358.39 0c-16,0 -23.89,6.15 -23.89,22.48z"/>
   </g>
  </g>
 </g>
</svg>
