<?xml version="1.0" encoding="UTF-8"?>
<!DOCTYPE svg PUBLIC "-//W3C//DTD SVG 1.1//EN" "http://www.w3.org/Graphics/SVG/1.1/DTD/svg11.dtd">
<!-- Creator: CorelDRAW 2019 (64 Bit) -->
<svg xmlns="http://www.w3.org/2000/svg" xml:space="preserve" width="60.9262mm" height="60.9262mm" version="1.1" style="shape-rendering:geometricPrecision; text-rendering:geometricPrecision; image-rendering:optimizeQuality; fill-rule:evenodd; clip-rule:evenodd"
viewBox="0 0 882.9 882.9"
 xmlns:xlink="http://www.w3.org/1999/xlink">
 <defs>
  <style type="text/css">
   <![CDATA[
    .fil2 {fill:none}
    .fil1 {fill:#FEFEFE}
    .fil0 {fill:#255996}
   ]]>
  </style>
   <clipPath id="id0">
    <path d="M441.45 0c243.81,0 441.45,197.64 441.45,441.45 0,243.81 -197.64,441.45 -441.45,441.45 -243.81,0 -441.45,-197.64 -441.45,-441.45 0,-243.81 197.64,-441.45 441.45,-441.45z"/>
   </clipPath>
 </defs>
 <g id="Camada_x0020_1">
  <metadata id="CorelCorpID_0Corel-Layer"/>
  <path class="fil0" d="M441.45 0c243.81,0 441.45,197.64 441.45,441.45 0,243.81 -197.64,441.45 -441.45,441.45 -243.81,0 -441.45,-197.64 -441.45,-441.45 0,-243.81 197.64,-441.45 441.45,-441.45z"/>
  <g style="clip-path:url(#id0)">
   <g id="_1504648326464">
    <path id="1" class="fil1" d="M223.66 186.09l0 464.28c13.09,17.5 10.89,32.68 55.64,34.72 28.48,1.3 65,1.53 93.29,-0.55l-3.58 -38.46 -48.89 -0.93c1.38,-40.83 -16.38,-57.82 -56.07,-56.81l-1.17 -343.5c55.09,-0.02 51.12,-34.32 56.32,-53.98l140.95 -1.14c0.94,40.32 15.47,52.8 54.61,55.52l0.59 430.51c-26.5,-22.17 -30.51,-43 -40.95,-82.44 -8.43,-31.83 -22.45,-69.09 -62.42,-62.33 -20.13,27.42 -11.82,61 -3.79,96.32 21.05,92.62 1.34,143.89 62.23,227.25 2.34,3.21 10.97,13.32 12.55,16.57 4.97,10.2 -0.51,12.76 6.08,23.38 12.02,5.88 142.43,6.17 157.97,1.15 15.38,-24.67 22.41,-220.62 46.38,-274.39l0 -22.01c-6.61,-12.02 -2.25,-13.95 -11.95,-24.72 -6.53,-7.26 -12.77,-13.02 -19.68,-20.12 -13.75,-14.13 -24.9,-27.06 -38.56,-41.06l-59.95 -56.8c-11.74,-9.73 -9.66,-11.13 -9.46,-29.19l0.19 -233.8c-2.03,-34.22 -31.55,-39.55 -39.18,-42.3l-255.94 0c-22.14,-1.4 -33.32,6.44 -35.19,34.86z"/>
    <path class="fil1" d="M367.09 519.58c9.23,-12.99 15.31,-23.29 33.11,-29.96 23.28,-8.73 41.65,0.4 60.67,4.68 9.69,-14.26 23.53,-29.96 27.59,-54.07 13.69,-81.41 -61.92,-137.76 -130.82,-115.02 -95.66,31.56 -91.41,170.15 9.45,194.36zm-9.95 -90.65c-6.17,-18.21 3.37,-22.42 -0.14,-34.37l-15.9 -4.64c-1.63,3.96 -3.82,12.36 -6.03,16.04 -6.3,10.55 -3.26,2.4 -14.82,8.77l-0.6 14.85c31.22,0.51 15.92,32.35 52,26.33 23.03,-3.85 20.79,-35.4 37.77,-44.87 21.95,5.07 8.7,25.75 7.38,42.35l19.19 4.49 7.19 -24.17c12.1,-6.03 11.78,2.67 14.73,-9.46 3.59,-14.83 -4.71,-8.48 -13.73,-13.56 -10.31,-5.8 -8.42,-20.94 -28.02,-24.87 -40.77,-8.18 -32.27,48.86 -59.02,43.1z"/>
    <path class="fil1" d="M384.82 248.29c-34.03,13.37 -14.43,65.48 20.5,50.48 30.25,-12.99 14.5,-64.22 -20.5,-50.48z"/>
   </g>
  </g>
  <path class="fil2" d="M441.45 0c243.81,0 441.45,197.64 441.45,441.45 0,243.81 -197.64,441.45 -441.45,441.45 -243.81,0 -441.45,-197.64 -441.45,-441.45 0,-243.81 197.64,-441.45 441.45,-441.45z"/>
 </g>
</svg>
