<?xml version="1.0" encoding="UTF-8"?>
<!DOCTYPE svg PUBLIC "-//W3C//DTD SVG 1.1//EN" "http://www.w3.org/Graphics/SVG/1.1/DTD/svg11.dtd">
<!-- Creator: CorelDRAW 2019 (64 Bit) -->
<svg xmlns="http://www.w3.org/2000/svg" xml:space="preserve" width="60.9262mm" height="60.9261mm" version="1.1" style="shape-rendering:geometricPrecision; text-rendering:geometricPrecision; image-rendering:optimizeQuality; fill-rule:evenodd; clip-rule:evenodd"
viewBox="0 0 1359.99 1359.99"
 xmlns:xlink="http://www.w3.org/1999/xlink">
 <defs>
  <style type="text/css">
   <![CDATA[
    .fil2 {fill:#FEFEFE}
    .fil0 {fill:#255996}
    .fil1 {fill:#FEFEFE}
   ]]>
  </style>
 </defs>
 <g id="Camada_x0020_1">
  <metadata id="CorelCorpID_0Corel-Layer"/>
  <circle class="fil0" cx="680" cy="680" r="680"/>
  <g id="_1506636877184">
   <path class="fil1" d="M209.41 892.22c15.44,18.16 57.6,10.36 101.29,10.35l338.13 -0.18 2.72 80.21 -231.47 -0.11 -0.74 70.76 533.46 -0.19 2.87 -70.51 -232.73 -0 0.91 -80.18 391.84 0.48c66.98,0.8 67.99,-19.48 30.79,-67.92l-76.7 -107.1c-18.42,-26.27 -29.24,-29.19 -29.74,-68.34 -1.2,-93.19 11.77,-301.26 -3.08,-376.86 -34.36,-11.45 -448.23,-5.38 -542.29,-5.38 -238.51,0 -141.35,-43.1 -160.18,388.04 -1.51,34.47 -47.49,87.58 -68.38,115.84 -25.19,34.08 -77.03,90.77 -56.69,111.1zm165 -77.93l625.46 -0.13c-6.35,-13.36 -12.2,-20.85 -21.33,-35.32 -9.47,-15 -13.77,-29.25 -29.74,-29.25l-536.04 0.29c-9.34,22.81 -28.17,40.76 -38.35,64.41zm4.55 -146.53l616.25 -0.03 -0.06 -345.29 -616.23 0.31 0.05 345.02z"/>
   <rect class="fil2" x="419.99" y="374.16" width="541.55" height="103.25"/>
   <rect class="fil2" x="419.99" y="515.35" width="152.84" height="103.25"/>
   <rect class="fil2" x="613.29" y="515.35" width="152.84" height="103.25"/>
   <rect class="fil2" x="806.59" y="515.35" width="152.84" height="103.25"/>
  </g>
 </g>
</svg>
