<?xml version="1.0" encoding="UTF-8"?>
<!DOCTYPE svg PUBLIC "-//W3C//DTD SVG 1.1//EN" "http://www.w3.org/Graphics/SVG/1.1/DTD/svg11.dtd">
<!-- Creator: CorelDRAW 2019 (64 Bit) -->
<svg xmlns="http://www.w3.org/2000/svg" xml:space="preserve" width="60.9262mm" height="60.9262mm" version="1.1" style="shape-rendering:geometricPrecision; text-rendering:geometricPrecision; image-rendering:optimizeQuality; fill-rule:evenodd; clip-rule:evenodd"
viewBox="0 0 2958.79 2958.79"
 xmlns:xlink="http://www.w3.org/1999/xlink">
 <defs>
  <style type="text/css">
   <![CDATA[
    .fil1 {fill:#FEFEFE}
    .fil0 {fill:#255996}
   ]]>
  </style>
 </defs>
 <g id="Camada_x0020_1">
  <metadata id="CorelCorpID_0Corel-Layer"/>
  <circle class="fil0" cx="1479.4" cy="1479.4" r="1479.4"/>
  <g id="_1506638910896">
   <path class="fil1" d="M2177.73 580.46c-246.02,33.54 -198.66,406.64 51.52,374.29 95.85,-12.39 175.58,-102.15 160.75,-214.65 -12.37,-93.84 -102.22,-174.64 -212.26,-159.64z"/>
   <path class="fil1" d="M2480.08 1298.34c-246.8,33.67 -198.13,406.84 51.41,374.24 95.84,-12.52 175.65,-102.11 160.74,-214.65 -12.45,-93.9 -102.11,-174.6 -212.15,-159.59z"/>
   <path class="fil1" d="M742.13 2016.15c-246.54,33.49 -198.13,407.06 51.49,374.26 95.98,-12.61 175.42,-102 160.71,-214.66 -12.26,-93.88 -102.29,-174.54 -212.2,-159.61z"/>
   <path class="fil1" d="M742.1 580.48c-246.62,34.07 -198.16,406.59 51.5,374.26 96.11,-12.45 175.37,-101.97 160.74,-214.63 -12.14,-93.45 -102.35,-174.8 -212.24,-159.62z"/>
   <path class="fil1" d="M1459.92 278.23c-97.19,13.38 -176.89,100.36 -161.85,214.48 12.41,94.13 101.96,174.44 213.38,159.84 95.87,-12.57 175.55,-102.14 160.71,-214.69 -12.36,-93.75 -102.33,-174.75 -212.24,-159.63z"/>
   <path class="fil1" d="M1459.92 2318.37c-97.17,13.36 -176.91,100.4 -161.85,214.48 12.43,94.18 101.85,174.36 213.37,159.81 95.87,-12.51 175.55,-102.11 160.72,-214.67 -12.37,-93.83 -102.33,-174.74 -212.24,-159.63z"/>
   <path class="fil1" d="M439.95 1298.34c-97.24,13.27 -177.06,100.36 -161.94,214.44 12.49,94.2 101.8,174.37 213.35,159.79 95.99,-12.54 175.44,-102 160.76,-214.65 -12.23,-93.78 -102.32,-174.57 -212.16,-159.58z"/>
   <path class="fil1" d="M2177.78 2016.15c-97.25,13.21 -176.78,100.34 -161.88,214.46 12.29,94.09 102.07,174.43 213.36,159.8 95.85,-12.6 175.63,-102.1 160.72,-214.66 -12.45,-93.94 -102.16,-174.56 -212.2,-159.61z"/>
   <path class="fil1" d="M1344.22 1463.53c-0.73,-1.04 -1.61,-4.08 -1.88,-3.33l-32.36 -56.16c-25.8,-37.48 -72.08,-71.77 -119.85,-53.08 -107.58,42.09 11.17,197.05 41.48,282.47 56.85,160.21 128.59,248.62 142.88,294.54 28.74,92.36 -14.93,94.24 52.74,93.06 98.6,-1.72 198.39,-0.31 297.13,-0.31 16.25,-69.78 10.48,-54.85 45.06,-126.78 17.26,-35.9 43.46,-83.65 43.46,-133.59l0 -286.4c0,-20.95 -19.12,-45.75 -34.24,-54.29 -18.78,-10.61 -55.49,-12.41 -75.12,-2.99 -9.04,-17.08 -19.68,-32.63 -36.51,-41.63 -28.8,-15.41 -36.97,-5.92 -67.64,-5.24 -30.66,-57.95 -40.13,-52.07 -104.15,-52.07l0 -307.23c0,-41.12 -35.17,-72.9 -62.49,-72.9 -47.53,0 -83.91,14.08 -88.41,78.23 -4.6,65.51 -0.11,366.96 -0.11,447.72z"/>
  </g>
 </g>
</svg>
