<?xml version="1.0" encoding="UTF-8"?>
<!DOCTYPE svg PUBLIC "-//W3C//DTD SVG 1.1//EN" "http://www.w3.org/Graphics/SVG/1.1/DTD/svg11.dtd">
<!-- Creator: CorelDRAW 2019 (64 Bit) -->
<svg xmlns="http://www.w3.org/2000/svg" xml:space="preserve" width="60.9262mm" height="60.9262mm" version="1.1" style="shape-rendering:geometricPrecision; text-rendering:geometricPrecision; image-rendering:optimizeQuality; fill-rule:evenodd; clip-rule:evenodd"
viewBox="0 0 1359.99 1359.99"
 xmlns:xlink="http://www.w3.org/1999/xlink">
 <defs>
  <style type="text/css">
   <![CDATA[
    .fil1 {fill:#FEFEFE}
    .fil0 {fill:#255996}
   ]]>
  </style>
 </defs>
 <g id="Camada_x0020_1">
  <metadata id="CorelCorpID_0Corel-Layer"/>
  <circle class="fil0" cx="680" cy="680" r="680"/>
  <path class="fil1" d="M224.04 681.9l0 7.01c7.26,8.76 22.59,46.79 30.86,61.18 154.95,269.59 521.01,334.81 765.1,111.87 76.15,-69.55 108.76,-162.02 117.9,-173.05l0 -7.01c-9.14,-11.03 -41.76,-103.5 -117.9,-173.05 -15.13,-13.82 -33.27,-28.66 -51.6,-41.86 -172.72,-124.34 -405.82,-123.91 -577.2,1.73 -19.55,14.33 -38.81,29.88 -53.39,44.11 -78.54,76.64 -103.19,156.31 -113.77,169.07zm433.13 -201.77c-125.81,18.63 -197.69,120.17 -182.04,232.74 14.72,105.89 108.76,195.69 233.31,178.37 105.89,-14.72 195.69,-108.77 178.37,-233.31 -14.56,-104.75 -108.55,-195.74 -229.64,-177.8z"/>
  <path class="fil1" d="M655.17 564.38c-161.86,34.45 -109.48,278.03 53.78,242.28 59.69,-13.07 110.04,-72.73 93.28,-149.24 -13.19,-60.25 -72.21,-108.98 -147.06,-93.04z"/>
 </g>
</svg>
