<?xml version="1.0" encoding="UTF-8"?>
<!DOCTYPE svg PUBLIC "-//W3C//DTD SVG 1.1//EN" "http://www.w3.org/Graphics/SVG/1.1/DTD/svg11.dtd">
<!-- Creator: CorelDRAW 2019 (64 Bit) -->
<svg xmlns="http://www.w3.org/2000/svg" xml:space="preserve" width="60.9261mm" height="60.9262mm" version="1.1" style="shape-rendering:geometricPrecision; text-rendering:geometricPrecision; image-rendering:optimizeQuality; fill-rule:evenodd; clip-rule:evenodd"
viewBox="0 0 2958.8 2958.8"
 xmlns:xlink="http://www.w3.org/1999/xlink">
 <defs>
  <style type="text/css">
   <![CDATA[
    .fil1 {fill:#FEFEFE}
    .fil0 {fill:#255996}
   ]]>
  </style>
 </defs>
 <g id="Camada_x0020_1">
  <metadata id="CorelCorpID_0Corel-Layer"/>
  <circle class="fil0" cx="1479.4" cy="1479.4" r="1479.4"/>
  <path class="fil1" d="M1612.79 2323.96c26.79,-4.46 136.89,-68.87 161.28,-83.13 27.84,-16.28 51.32,-28.83 78.64,-44.06l59.13 -32.23c11.74,-7.42 9.66,-7.96 22.48,-8.75 8.49,-10.4 80.7,-50.21 95.75,-55.06 52.45,-34.09 115.35,-61.37 169.68,-94.61 17.87,-11.31 65.88,-38.53 84.85,-45.34 -0.92,-36.71 -26.37,-89.76 -29.93,-127.59l-9.28 -24.94c-46.88,9.54 -228.23,69.08 -256.97,67.22 -7.82,7.14 -10.72,6.55 -25.71,10.43 -27.89,7.22 -153.85,47.53 -171.05,41.49 -18.29,-6.42 -2.37,0.41 -10.37,-6 -25.13,2.68 -182.22,-44.32 -223.96,-51.5 -22.53,-6.16 -39.04,-6.75 -49.86,-15.2 -19.77,2.11 -59.77,-12.99 -83.26,-17.42l25.26 -103.8 227.23 55.97 125.13 28.49 -0.46 -135.92 -23.95 -6.79 -9.49 -2.21c-24.02,-4.33 -40.55,-7.64 -49.84,-14.9 -24.13,2.57 -176.85,-44.43 -216.94,-51.5 -6.71,-1.84 -12.65,-2.69 -19.52,-4.73 -13.24,-3.93 -7.04,0.16 -14.88,-7.25 -18.77,2.2 -97.01,-21.29 -120.07,-27.32 -12.74,-2.64 -29.38,-9.37 -42.12,-6.44l-442.88 67.18 -0.79 583.73c69.22,-10.14 141.17,-15.79 210.99,-23.83 53.36,-6.14 47.68,-6 96.2,7.78l268.76 75.3c28.55,8.16 163.99,41.49 175.98,52.94z"/>
  <polygon class="fil1" points="491.39,1775.1 491.43,2361.36 753.75,2361.36 754.29,1637.28 491.04,1637.92 "/>
  <path class="fil1" d="M1599.67 636.72c206.51,20.26 367.87,194.38 367.87,406.21 0,211.82 -161.36,385.94 -367.87,406.2l0 -63.02c29.24,-1.9 57.53,-7.15 84.86,-15.73 27.33,-8.58 51.65,-21.29 72.95,-38.14 21.29,-16.85 38.45,-38.47 51.49,-64.84 13.03,-26.38 19.55,-58.33 19.55,-95.83 0,-31.78 -4.77,-58.8 -14.3,-81.05 -9.53,-22.25 -23.2,-41.16 -41,-56.74 -17.79,-15.57 -39.25,-29.08 -64.36,-40.52 -25.11,-11.45 -53.24,-21.93 -84.38,-31.47 -7,-1.91 -13.67,-3.97 -20.02,-6.2 -6.36,-2.21 -12.4,-3.96 -18.12,-5.24l0 -85.82c17.79,3.17 35.44,7.79 52.92,13.82 17.49,6.04 33.22,12.55 47.2,19.55 16.53,7.62 31.78,15.89 45.78,24.79l80.09 -153.51c-13.35,-6.36 -27.97,-13.19 -43.86,-20.5 -15.89,-7.31 -32.89,-14.31 -51.01,-20.97 -18.12,-6.68 -37.02,-12.56 -56.74,-17.64 -19.71,-5.09 -40.05,-8.91 -61.02,-11.45l0 -61.9zm-76.29 812.8c-208.59,-18.21 -372.22,-193.28 -372.22,-406.59 0,-213.32 163.64,-388.39 372.22,-406.6l0 61.35c-29.87,3.17 -58,10.48 -84.38,21.92 -26.37,11.45 -49.42,26.7 -69.13,45.78 -19.7,19.07 -35.28,41.79 -46.72,68.17 -11.44,26.38 -17.17,56.74 -17.17,91.06 0,24.79 3.34,46.72 10.01,65.79 6.67,19.08 17,36.08 30.98,51.01 13.99,14.95 31.78,28.3 53.4,40.05 21.62,11.77 47.36,22.73 77.24,32.9 19.71,6.99 39.41,13.03 59.12,18.12l0 83.91c-22.88,-3.18 -45.29,-8.75 -67.22,-16.69 -21.94,-7.95 -41.16,-16.06 -57.69,-24.32 -19.71,-9.53 -38.14,-19.71 -55.3,-30.51l-80.09 163.05c34.32,20.34 73.1,37.19 116.33,50.54 43.23,13.35 86.77,21.93 130.63,25.75l0 65.31zm104.89 -259.83c0,-8.9 -3.81,-16.69 -11.44,-23.36 -7.63,-6.67 -17.8,-12.55 -30.51,-17.63l0 70.55c15.25,-1.27 26.06,-4.45 32.42,-9.54 6.36,-5.08 9.54,-11.75 9.54,-20.02zm-129.68 -295.59c0,9.54 3.18,17.32 9.53,23.36 6.36,6.04 15.89,11.6 28.6,16.69l0 -72.47c-25.42,3.18 -38.14,13.99 -38.14,32.42z"/>
 </g>
</svg>
